<?xml version="1.0" standalone="no"?>
<!DOCTYPE svg PUBLIC "-//W3C//DTD SVG 20010904//EN"
 "http://www.w3.org/TR/2001/REC-SVG-20010904/DTD/svg10.dtd">
<svg version="1.0" xmlns="http://www.w3.org/2000/svg"
 width="512.000000pt" height="512.000000pt" viewBox="0 0 512.000000 512.000000"
 preserveAspectRatio="xMidYMid meet">

<g transform="translate(0.000000,512.000000) scale(0.100000,-0.100000)"
fill="#000000" stroke="none">
<path d="M2740 4535 c-274 -33 -590 -141 -805 -275 l-70 -43 -160 -3 c-88 -1
-196 -7 -240 -14 -100 -14 -266 -56 -325 -82 -152 -67 -230 -109 -241 -130
-21 -36 -17 -322 5 -423 20 -88 67 -218 114 -311 l31 -61 -24 -77 c-37 -118
-73 -290 -85 -405 -6 -57 -9 -105 -7 -107 2 -2 28 24 58 58 150 175 335 345
514 474 229 166 448 275 716 357 397 122 427 127 713 127 l235 0 7 47 c12 80
-3 320 -25 403 -32 120 -36 132 -84 231 -49 101 -136 230 -165 241 -23 9 -38
8 -162 -7z"/>
<path d="M2975 2730 c-129 -15 -155 -20 -277 -51 -140 -35 -303 -104 -409
-174 -92 -61 -275 -243 -352 -352 -32 -46 -82 -129 -111 -186 -124 -244 -133
-433 -29 -639 l23 -48 265 0 265 0 10 23 c5 12 27 72 48 132 l40 110 -117 11
c-64 6 -117 12 -118 13 -1 0 23 54 54 119 90 192 108 230 183 392 39 85 85
183 102 217 l31 63 336 2 336 3 8 50 c4 28 8 111 10 185 l2 135 -115 1 c-63 1
-146 -2 -185 -6z"/>
</g>
</svg>
